<?xml version="1.0" encoding="UTF-8" standalone="no"?>
<svg
   xmlns:dc="http://purl.org/dc/elements/1.1/"
   xmlns:cc="http://creativecommons.org/ns#"
   xmlns:rdf="http://www.w3.org/1999/02/22-rdf-syntax-ns#"
   xmlns:svg="http://www.w3.org/2000/svg"
   xmlns="http://www.w3.org/2000/svg"
   xmlns:sodipodi="http://sodipodi.sourceforge.net/DTD/sodipodi-0.dtd"
   xmlns:inkscape="http://www.inkscape.org/namespaces/inkscape"
   width="137mm"
   height="86mm"
   viewBox="0 0 137 86"
   version="1.1"
   id="svg855"
   inkscape:version="1.0 (4035a4fb49, 2020-05-01)"
   sodipodi:docname="CloseEye.svg">
  <defs
     id="defs849" />
  <sodipodi:namedview
     id="base"
     pagecolor="#ffffff"
     bordercolor="#666666"
     borderopacity="1.0"
     inkscape:pageopacity="0.0"
     inkscape:pageshadow="2"
     inkscape:zoom="0.49497475"
     inkscape:cx="-172.05387"
     inkscape:cy="493.72707"
     inkscape:document-units="mm"
     inkscape:current-layer="layer1"
     inkscape:document-rotation="0"
     showgrid="false"
     inkscape:window-width="1920"
     inkscape:window-height="1051"
     inkscape:window-x="2391"
     inkscape:window-y="-9"
     inkscape:window-maximized="1" />
  <metadata
     id="metadata852">
    <rdf:RDF>
      <cc:Work
         rdf:about="">
        <dc:format>image/svg+xml</dc:format>
        <dc:type
           rdf:resource="http://purl.org/dc/dcmitype/StillImage" />
        <dc:title></dc:title>
      </cc:Work>
    </rdf:RDF>
  </metadata>
  <g
     inkscape:label="Слой 1"
     inkscape:groupmode="layer"
     id="layer1">
    <path
       style="fill:#000000;stroke-width:0.264583"
       d="m 2.0640959,84.914349 c -0.885692,-0.38108 -1.49275005,-1.25295 -1.64076705,-2.35649 -0.124104,-0.92526 -0.03557,-1.15833 0.75002705,-1.97448 0.489907,-0.50895 4.938864,-3.379905 9.8865711,-6.379895 4.947709,-2.99999 9.174427,-5.57463 9.392708,-5.72143 0.325271,-0.21874 0.134326,-0.49132 -1.058333,-1.51078 -5.473378,-4.67854 -11.1994471,-11.10858 -15.2632891,-17.13976 -1.90244,-2.82343 -3.78680505,-6.31042 -3.78298705,-7.00036 0.0078,-1.40306 4.34029205,-8.39511 8.19341665,-13.22293 C 20.415919,14.729934 37.824004,4.5421143 56.469053,1.5592943 c 9.307444,-1.48900002 17.030738,-1.36845002 26.001198,0.40583 8.94857,1.76996 17.607429,5.22331 25.388929,10.1256897 l 2.6039,1.64047 10.75572,-6.5561397 c 9.65046,-5.88243 10.87136,-6.55541002 11.88121,-6.54910002 1.44767,0.009 2.42519,0.91486002 2.62927,2.43637002 0.12722,0.94847 0.043,1.17348 -0.74736,1.99661 C 133.72833,6.3646043 4.4228509,84.989229 3.3870119,85.075739 c -0.436562,0.0365 -1.031875,-0.0362 -1.322916,-0.16139 z M 36.704309,58.642764 c 5.540901,-3.36547 10.22193,-6.25153 10.402286,-6.41346 0.258768,-0.23232 0.211698,-0.59988 -0.2232,-1.74298 -1.299924,-3.41672 -1.654865,-8.31604 -0.877281,-12.1092 2.824188,-13.77677 17.258241,-21.5821 30.457947,-16.47036 2.50012,0.9682 5.92353,3.26846 7.81373,5.25021 l 1.51579,1.5892 8.93526,-5.43891 c 4.914384,-2.99139 9.267319,-5.6425 9.673189,-5.89135 l 0.73793,-0.45245 -1.92029,-1.14083 C 95.841121,11.439124 87.524891,8.4279843 78.793261,6.9783243 c -16.149032,-2.68113 -34.39679,1.3064 -48.683334,10.6383497 -8.816208,5.75874 -16.580118,13.63794 -22.0125421,22.33942 -0.756273,1.21138 -1.44379,2.38524 -1.527815,2.60859 -0.191384,0.50872 3.4181296,6.08358 6.1611201,9.51578 4.060746,5.08107 12.594172,13.18216 13.51389,12.82923 0.21195,-0.0813 4.91883,-2.90145 10.459729,-6.26693 z m 30.156048,-18.33625 13.924164,-8.46667 -1.65873,-1.59025 c -2.87592,-2.75718 -6.97582,-4.35369 -11.180444,-4.35369 -10.712206,0 -18.627785,9.7166 -16.416292,20.15146 0.403524,1.90401 0.842796,2.94007 1.190564,2.80804 0.119118,-0.0452 6.482447,-3.89223 14.140738,-8.54889 z m -5.20382,44.567055 c -7.320396,-0.65007 -15.278642,-2.59901 -21.989681,-5.38518 -4.923837,-2.044195 -5.773388,-2.704055 -5.773388,-4.484325 0,-1.26458 0.718923,-2.22658 1.936626,-2.59142 0.972274,-0.2913 1.190151,-0.23786 3.791703,0.92998 19.145879,8.594525 40.042924,8.140135 59.279788,-1.28901 12.118665,-5.94009 22.644535,-15.58687 29.652265,-27.17577 l 1.23554,-2.04325 -1.27734,-2.05779 c -2.76533,-4.45492 -5.19671,-7.6038 -9.83285,-12.7345 -1.96622,-2.17597 -2.18281,-2.52048 -2.18281,-3.47207 0,-1.25278 1.06624,-2.60508 2.11666,-2.68453 1.60259,-0.12122 1.92728,0.0582 4.00952,2.21508 5.41026,5.60428 13.1884,16.62657 13.1884,18.68909 0,1.61247 -5.50907,10.14471 -9.7571,15.11143 -11.87465,13.8836 -28.378609,23.203045 -46.334569,26.164165 -6.20908,1.02394 -12.475324,1.30428 -18.062764,0.8081 z m 1.923178,-19.960515 c -2.477922,-0.49976 -4.776704,-1.429 -5.619142,-2.27144 -1.035545,-1.03555 -1.03705,-2.76713 -0.0033,-3.73504 1.161976,-1.08793 1.676496,-1.11213 4.323247,-0.20336 6.447987,2.21393 12.979751,0.75768 17.694601,-3.945 1.36996,-1.36643 2.33911,-2.63024 3.0069,-3.92116 0.9998,-1.93272 2.02891,-5.35625 2.02891,-6.74955 0,-1.98397 1.82451,-3.43164 3.59043,-2.84883 1.93398,0.63827 2.383,2.354 1.591,6.07929 -0.97334,4.57827 -2.77299,7.8996 -6.10747,11.27157 -3.42905,3.46759 -6.85898,5.34498 -11.57914,6.3379 -2.207734,0.46441 -6.587104,0.45735 -8.926076,-0.0144 z"
       id="path1432" />
  </g>
</svg>
