<?xml version="1.0" encoding="UTF-8" standalone="no"?>
<svg
   xmlns:dc="http://purl.org/dc/elements/1.1/"
   xmlns:cc="http://creativecommons.org/ns#"
   xmlns:rdf="http://www.w3.org/1999/02/22-rdf-syntax-ns#"
   xmlns:svg="http://www.w3.org/2000/svg"
   xmlns="http://www.w3.org/2000/svg"
   xmlns:sodipodi="http://sodipodi.sourceforge.net/DTD/sodipodi-0.dtd"
   xmlns:inkscape="http://www.inkscape.org/namespaces/inkscape"
   sodipodi:docname="Delete.svg"
   inkscape:version="1.0 (4035a4fb49, 2020-05-01)"
   id="svg8"
   version="1.1"
   viewBox="0 0 128 146"
   height="146mm"
   width="128mm">
  <defs
     id="defs2" />
  <sodipodi:namedview
     inkscape:window-maximized="0"
     inkscape:window-y="0"
     inkscape:window-x="2407"
     inkscape:window-height="1208"
     inkscape:window-width="1895"
     showgrid="false"
     inkscape:document-rotation="0"
     inkscape:current-layer="layer1"
     inkscape:document-units="mm"
     inkscape:cy="621.68883"
     inkscape:cx="622.34762"
     inkscape:zoom="0.49497475"
     inkscape:pageshadow="2"
     inkscape:pageopacity="0.0"
     borderopacity="1.0"
     bordercolor="#666666"
     pagecolor="#ffffff"
     id="base" />
  <metadata
     id="metadata5">
    <rdf:RDF>
      <cc:Work
         rdf:about="">
        <dc:format>image/svg+xml</dc:format>
        <dc:type
           rdf:resource="http://purl.org/dc/dcmitype/StillImage" />
        <dc:title></dc:title>
      </cc:Work>
    </rdf:RDF>
  </metadata>
  <g
     id="layer1"
     inkscape:groupmode="layer"
     inkscape:label="Слой 1">
    <path
       id="path847"
       d="m 26.918445,144.51635 c -2.030256,-0.39872 -4.732262,-1.8297 -6.357826,-3.36709 -1.586017,-1.49998 -3.316161,-4.56079 -3.667207,-6.48766 -0.09898,-0.54328 -1.888773,-21.61225 -3.977326,-46.819943 -2.088553,-25.20769 -3.8315583,-45.85021 -3.8733463,-45.87225 -0.04179,-0.0221 -0.76985,-0.35258 -1.617915,-0.7345 -2.032612,-0.91538 -4.511261,-3.3681 -5.616674,-5.55791 -3.780571,-7.48927 0.705903,-16.56598 8.9622433,-18.13176 0.869733,-0.16495 6.206936,-0.28807 12.48711,-0.28807 h 10.968145 v -2.50148 c 0,-1.37581 0.129631,-3.18501 0.288067,-4.02044 0.961235,-5.0685901 5.054758,-9.1621101 10.123342,-10.12335014 2.046929,-0.38819 36.396908,-0.38819 38.443838,0 5.06859,0.96124004 9.16211,5.05476004 10.12335,10.12335014 0.15843,0.83543 0.28806,2.64463 0.28806,4.02044 v 2.50148 h 10.968154 c 6.28017,0 11.61738,0.12312 12.48711,0.28807 6.68891,1.26852 11.31212,7.82939 10.17791,14.44362 -0.66813,3.89623 -3.51862,7.75372 -6.83234,9.24605 -0.84807,0.38192 -1.57613,0.71245 -1.61792,0.7345 -0.0418,0.022 -1.78479,20.66456 -3.87334,45.87225 -2.08856,25.207693 -3.87835,46.276663 -3.97733,46.819943 -0.099,0.54328 -0.62154,1.90081 -1.16125,3.01674 -1.68604,3.48613 -5.16593,6.11203 -9.08462,6.85519 -1.881004,0.35673 -71.839416,0.34041 -73.660235,-0.0172 z m 73.820445,-8.89647 c 1.84721,-1.37701 1.521,1.39072 5.45944,-46.320406 1.9959,-24.178657 3.69406,-44.564447 3.7737,-45.301757 l 0.1448,-1.34055 H 63.851084 17.585337 l 0.145647,1.19944 c 0.08011,0.6597 1.724889,20.43995 3.655073,43.95611 1.930183,23.516163 3.585049,43.417003 3.677483,44.224093 0.202968,1.77226 1.070234,3.1579 2.394401,3.82556 0.92325,0.46551 3.126198,0.49089 36.73317,0.42333 l 35.751015,-0.0719 z m -59.919613,-8.30996 c -2.399295,-1.18765 -2.092573,1.38803 -4.492596,-37.726036 l -2.13388,-34.776617 0.568692,-1.28562 c 0.447492,-1.01163 0.826909,-1.40281 1.780312,-1.83552 1.560861,-0.7084 2.301338,-0.69992 3.837993,0.044 2.283892,1.10562 2.008733,-1.2404 4.424121,37.720607 l 2.157369,34.799086 -0.599229,1.23783 c -0.44047,0.90989 -0.917425,1.39188 -1.800256,1.81925 -1.508618,0.73031 -2.272072,0.73093 -3.742526,0.003 z m 21.149035,-0.009 c -0.846246,-0.41888 -1.350605,-0.92848 -1.763888,-1.78221 -0.573964,-1.18566 -0.578776,-1.48504 -0.578776,-36.012936 0,-34.579167 0.004,-34.825567 0.581409,-36.018377 0.614014,-1.26838 2.306404,-2.36385 3.651924,-2.36385 1.345519,0 3.037909,1.09547 3.651929,2.36385 0.57743,1.19281 0.5814,1.43921 0.5814,36.018377 0,34.579156 -0.004,34.825556 -0.5814,36.018366 -0.42212,0.87199 -0.91046,1.36032 -1.78244,1.78244 -1.512489,0.73218 -2.271856,0.73104 -3.760158,-0.006 z m 21.140154,0.0248 c -0.9534,-0.43271 -1.33282,-0.82389 -1.78031,-1.83552 l -0.56869,-1.28562 2.15597,-34.776606 c 2.41752,-38.995517 2.14932,-36.708657 4.42636,-37.742097 1.52412,-0.69173 2.31024,-0.69173 3.83436,0 0.9534,0.43271 1.33282,0.82389 1.78031,1.83552 l 0.56869,1.28562 -2.15597,34.776617 c -2.41752,38.995506 -2.14932,36.708646 -4.42637,37.742086 -0.66639,0.30245 -1.52912,0.5499 -1.91717,0.5499 -0.38806,0 -1.25079,-0.24745 -1.91718,-0.5499 z M 116.52688,33.732107 c 1.49971,-0.71165 2.22432,-1.9415 2.22432,-3.7752 0,-1.83371 -0.72461,-3.06355 -2.22432,-3.77521 -0.87983,-0.4175 -5.54957,-0.45812 -52.667899,-0.45812 -57.2590493,0 -52.876132,-0.14529 -54.2627773,1.79868 -0.876748,1.22913 -0.878442,3.6378 -0.0034,4.86449 1.3816403,1.93694 -3.05334,1.78995 54.2235473,1.79707 47.166029,0.006 51.830559,-0.0341 52.710549,-0.45171 z M 84.980776,14.364127 c -0.0814,-2.44584 -0.19349,-3.02911 -0.72569,-3.7752 -1.32333,-1.8552001 -0.68243,-1.7986901 -20.396105,-1.7986901 -19.713678,0 -19.072783,-0.0565 -20.396111,1.7986901 -0.532195,0.74609 -0.644314,1.32936 -0.725687,3.7752 l -0.09625,2.89278 h 21.218044 21.218049 z"
       style="fill:#000000;stroke-width:0.282222" />
  </g>
</svg>
