<?xml version="1.0" encoding="UTF-8" standalone="no"?>
<svg
   xmlns:dc="http://purl.org/dc/elements/1.1/"
   xmlns:cc="http://creativecommons.org/ns#"
   xmlns:rdf="http://www.w3.org/1999/02/22-rdf-syntax-ns#"
   xmlns:svg="http://www.w3.org/2000/svg"
   xmlns="http://www.w3.org/2000/svg"
   xmlns:sodipodi="http://sodipodi.sourceforge.net/DTD/sodipodi-0.dtd"
   xmlns:inkscape="http://www.inkscape.org/namespaces/inkscape"
   width="137mm"
   height="86mm"
   viewBox="0 0 137 86"
   version="1.1"
   id="svg8"
   inkscape:version="1.0 (4035a4fb49, 2020-05-01)"
   sodipodi:docname="OpenEye.svg">
  <defs
     id="defs2" />
  <sodipodi:namedview
     id="base"
     pagecolor="#ffffff"
     bordercolor="#666666"
     borderopacity="1.0"
     inkscape:pageopacity="0.0"
     inkscape:pageshadow="2"
     inkscape:zoom="0.35"
     inkscape:cx="-231.98545"
     inkscape:cy="-450.66493"
     inkscape:document-units="mm"
     inkscape:current-layer="layer1"
     inkscape:document-rotation="0"
     showgrid="false"
     inkscape:window-width="1895"
     inkscape:window-height="1080"
     inkscape:window-x="2407"
     inkscape:window-y="0"
     inkscape:window-maximized="0" />
  <metadata
     id="metadata5">
    <rdf:RDF>
      <cc:Work
         rdf:about="">
        <dc:format>image/svg+xml</dc:format>
        <dc:type
           rdf:resource="http://purl.org/dc/dcmitype/StillImage" />
        <dc:title></dc:title>
      </cc:Work>
    </rdf:RDF>
  </metadata>
  <g
     inkscape:label="Слой 1"
     inkscape:groupmode="layer"
     id="layer1">
    <path
       style="fill:#000000;stroke-width:0.270823"
       d="M 60.764176,84.635495 C 47.627914,83.126645 35.098181,78.348286 24.629516,70.855099 16.291205,64.886777 7.8455902,55.714981 2.5702832,46.899161 0.71115461,43.792277 0.45904237,43.065476 0.8574173,41.961272 1.983887,38.838929 7.9037068,30.569058 12.69458,25.42499 25.97723,11.163126 42.636438,2.8452653 61.655319,0.97912278 66.375052,0.51602951 75.185266,0.78910584 79.935389,1.5457369 96.994892,4.2630596 112.06531,12.3935 124.18888,25.420351 c 4.79549,5.152767 10.71308,13.420733 11.83878,16.540921 0.39837,1.104204 0.14625,1.831005 -1.71287,4.937889 -3.82269,6.38828 -10.22499,14.066879 -15.83053,18.986336 -11.12319,9.761787 -24.128831,15.899994 -38.656566,18.244542 -4.088539,0.659836 -15.163073,0.953464 -19.063518,0.505456 z m 13.768092,-5.805549 c 17.546309,-1.63628 33.428552,-9.542201 45.680222,-22.738822 3.36701,-3.626711 6.06719,-7.11135 8.47683,-10.939522 l 1.46214,-2.322896 -0.96947,-1.593633 C 125.73654,35.571325 119.50659,28.263107 114.3035,23.781428 103.70078,14.648773 90.780853,8.8654439 76.915211,7.0453849 73.327386,6.5744314 63.548158,6.5752594 59.969865,7.0465191 46.261309,8.8530922 33.634589,14.461308 22.901915,23.510427 17.707547,27.89006 11.215981,35.460182 7.7035761,41.234007 l -0.9689681,1.592828 0.9689681,1.592816 c 3.5124049,5.773825 10.0039709,13.343958 15.1983389,17.723523 14.67694,12.374671 33.305799,18.395382 51.630353,16.686523 z m -9.53176,-9.711665 c -5.223016,-0.703459 -10.553924,-3.497353 -14.449212,-7.572742 -9.925249,-10.384148 -9.925249,-27.052761 0,-37.43691 9.924054,-10.382901 25.85842,-10.382901 35.782473,0 9.925256,10.384149 9.925256,27.052762 0,37.43691 -5.641807,5.902673 -13.368559,8.645459 -21.333261,7.572742 z m 8.457318,-6.384549 c 8.63125,-2.279046 14.610983,-10.426104 14.610983,-19.906648 0,-15.398132 -15.232597,-25.234347 -28.502262,-18.404921 -9.528819,4.904134 -13.502847,17.237882 -8.844539,27.449786 2.19555,4.813056 6.465269,8.728802 11.408527,10.462705 3.77368,1.323654 7.348691,1.44961 11.327291,0.399078 z"
       id="path847" />
  </g>
</svg>
