<?xml version="1.0" encoding="UTF-8" standalone="no"?>
<svg
   xmlns:dc="http://purl.org/dc/elements/1.1/"
   xmlns:cc="http://creativecommons.org/ns#"
   xmlns:rdf="http://www.w3.org/1999/02/22-rdf-syntax-ns#"
   xmlns:svg="http://www.w3.org/2000/svg"
   xmlns="http://www.w3.org/2000/svg"
   xmlns:sodipodi="http://sodipodi.sourceforge.net/DTD/sodipodi-0.dtd"
   xmlns:inkscape="http://www.inkscape.org/namespaces/inkscape"
   sodipodi:docname="Pencil.svg"
   inkscape:version="1.0 (4035a4fb49, 2020-05-01)"
   id="svg8"
   version="1.1"
   viewBox="0 0 47 177"
   height="177mm"
   width="47mm">
  <defs
     id="defs2" />
  <sodipodi:namedview
     inkscape:window-maximized="1"
     inkscape:window-y="-9"
     inkscape:window-x="2391"
     inkscape:window-height="1051"
     inkscape:window-width="1920"
     showgrid="false"
     inkscape:document-rotation="0"
     inkscape:current-layer="layer1"
     inkscape:document-units="mm"
     inkscape:cy="581.03654"
     inkscape:cx="652.23804"
     inkscape:zoom="0.7"
     inkscape:pageshadow="2"
     inkscape:pageopacity="0.0"
     borderopacity="1.0"
     bordercolor="#666666"
     pagecolor="#ffffff"
     id="base" />
  <metadata
     id="metadata5">
    <rdf:RDF>
      <cc:Work
         rdf:about="">
        <dc:format>image/svg+xml</dc:format>
        <dc:type
           rdf:resource="http://purl.org/dc/dcmitype/StillImage" />
        <dc:title></dc:title>
      </cc:Work>
    </rdf:RDF>
  </metadata>
  <g
     id="layer1"
     inkscape:groupmode="layer"
     inkscape:label="Слой 1">
    <path
       id="path847"
       d="m 24.058798,175.39768 c -0.725287,0.002 -1.461632,-0.18548 -1.712836,-0.43557 -0.242345,-0.24128 -5.052643,-9.884 -10.689547,-21.42827 L 1.4074986,132.54426 1.2768136,71.445061 c -0.0952,-44.508245 -0.01712,-61.442295 0.287543,-62.3627067 1.211732,-3.6608274 3.98572,-6.3750406 7.440524,-7.2802066 0.679294,-0.177974 7.5002664,-0.324721 15.1577284,-0.326105 12.988609,-0.0023 14.023336,0.04375 15.423198,0.687239 2.959534,1.3604359 5.084191,3.6837853 6.102771,6.673479 0.37729,1.1074057 0.51285,14.0251753 0.65366,62.2887753 0.0977,33.490404 0.11068,61.128294 0.0288,61.417534 -0.3098,1.09472 -20.152885,41.95995 -20.586001,42.39519 -0.267556,0.26887 -0.976648,0.45758 -1.726269,0.45942 z m 2.314309,-13.29236 c 1.093643,-2.26192 1.995411,-4.25291 2.003931,-4.42444 0.02043,-0.41121 -1.870148,-0.84506 -3.994443,-0.91666 -1.991699,-0.0671 -4.755036,0.47599 -4.725014,0.92868 0.02151,0.32427 3.982362,8.4926 4.236466,8.73672 0.244832,0.23517 0.43473,-0.0961 2.47906,-4.3243 z M 35.6674,142.834 c 2.538787,-5.25667 4.620989,-9.70409 4.627119,-9.88315 0.01093,-0.31944 -7.029566,-5.56966 -7.469176,-5.5699 -0.117875,-7e-5 -1.869003,1.57332 -3.891328,3.49641 -5.177649,4.9236 -4.786684,4.9226 -9.906115,0.0256 -1.998374,-1.91159 -3.753692,-3.47878 -3.900674,-3.48272 -0.461865,-0.0123 -7.5259374,5.26228 -7.5054394,5.6042 0.01052,0.17549 2.146446,4.67117 4.7465034,9.99039 3.827133,7.82959 4.806869,9.65026 5.14479,9.56078 5.325991,-1.41031 8.297351,-1.47593 12.033286,-0.26574 0.659813,0.21373 1.26838,0.31955 1.352365,0.23515 0.08398,-0.0844 2.229882,-4.45436 4.768669,-9.71103 z m 5.475917,-57.785031 -0.101873,-41.344737 -2.993429,0.0073 -2.993428,0.0073 0.09714,39.39619 0.09713,39.396178 2.887118,2.05282 c 1.587912,1.12905 2.937086,2.00261 2.998165,1.94123 0.06109,-0.0614 0.06521,-18.71673 0.0092,-41.456341 z m -11.230995,-1.841882 -0.09405,-39.476723 -5.987897,0.01464 -5.987882,0.01464 0.115531,39.550012 0.115535,39.550004 2.954341,2.73956 2.954348,2.73958 2.134031,-2.02528 c 1.173675,-1.11394 2.529135,-2.38629 3.012078,-2.8275 l 0.878096,-0.80217 z m -17.39831,-0.05828 -0.09711,-39.386109 -2.9929554,0.01613 -2.992947,0.01613 0.101425,41.420028 c 0.05578,22.781014 0.190329,41.419804 0.298997,41.419534 0.175914,-4.3e-4 4.7158364,-3.18242 5.4778704,-3.83939 0.16599,-0.14313 0.258124,-17.98396 0.204719,-39.64632 z M 23.894941,30.460039 c -9.41655,0.02223 -17.2038274,0.123642 -17.3050554,0.225367 -0.243995,0.245194 -0.234255,7.427017 0.01041,7.670483 0.104667,0.104156 7.8926354,0.171194 17.3065764,0.148976 l 17.116271,-0.04039 -0.0036,-4.022423 -0.0036,-4.022415 z M 40.96812,17.800248 C 40.91667,10.265711 40.809406,9.6845322 39.172316,8.0706334 37.812537,6.7301945 36.620014,6.6272604 23.313159,6.7024411 13.04603,6.7604561 10.110549,6.880654 9.3542556,7.2740321 c -1.321452,0.6873283 -2.561078,2.3391791 -2.809059,3.7431429 -0.110872,0.627767 -0.191285,4.089863 -0.178685,7.693556 l 0.02291,6.552164 17.2093404,-0.04062 c 9.465143,-0.02234 17.256368,-0.08786 17.313835,-0.145613 0.05749,-0.05777 0.08245,-3.332142 0.05552,-7.276414 z"
       style="fill:#000000;stroke-width:0.264583" />
  </g>
</svg>
